<?xml version="1.0" standalone="no"?>
<!DOCTYPE svg PUBLIC "-//W3C//DTD SVG 20010904//EN"
 "http://www.w3.org/TR/2001/REC-SVG-20010904/DTD/svg10.dtd">
<svg version="1.0" xmlns="http://www.w3.org/2000/svg"
 width="270.000000pt" height="270.000000pt" viewBox="0 0 270.000000 270.000000"
 preserveAspectRatio="xMidYMid meet">
<metadata>
Created by potrace 1.11, written by Peter Selinger 2001-2013
</metadata>
<g transform="translate(0.000000,270.000000) scale(0.100000,-0.100000)"
fill="#000000" stroke="none">
<path d="M1123 2629 c-405 -75 -751 -332 -927 -687 -27 -53 -52 -106 -57 -117
-16 -35 -58 -184 -64 -228 -4 -23 -9 -46 -13 -51 -3 -5 -7 -75 -8 -155 -3
-206 15 -320 77 -491 155 -421 519 -732 969 -826 121 -25 379 -25 505 0 167
33 376 125 510 226 227 170 403 415 474 660 7 25 17 56 22 70 32 92 46 394 24
525 -9 57 -52 215 -71 261 -171 424 -515 713 -964 810 -115 25 -350 26 -477 3z"/>
</g>
</svg>
